<?xml version="1.0" encoding="UTF-8"?>
<svg width="60px" height="60px" viewBox="0 0 60 60" version="1.1" xmlns="http://www.w3.org/2000/svg" xmlns:xlink="http://www.w3.org/1999/xlink">
    <defs></defs>
    <g id="Realese-1" stroke="none" stroke-width="1" fill="none" fill-rule="evenodd">
        <g id="Realese_user_page-FINAL" transform="translate(-248.000000, -488.000000)">
            <g id="6" transform="translate(248.000000, 488.000000)">
                <circle id="Oval-2-Copy-4" fill="#00AFF0" cx="30" cy="30" r="30"></circle>
                <path d="M44.8673687,32.6263363 C44.8572334,32.6825877 44.8501386,32.739346 44.8394964,32.7955974 L44.7847652,32.4732916 C44.8146646,32.5234619 44.8394964,32.5756593 44.8673687,32.6263363 C45.0325759,31.727326 45.1192335,30.8070314 45.1192335,29.8872436 C45.1192335,27.8474939 44.7198986,25.8685565 43.9308575,24.0056695 C43.1696887,22.2061287 42.0806398,20.5900388 40.6920896,19.2025022 C39.3055665,17.8149656 37.688463,16.7259165 35.8899359,15.9647478 C34.0275556,15.1767202 32.0486183,14.7773854 30.0088685,14.7773854 C29.0475255,14.7773854 28.0846623,14.8675905 27.1476442,15.0474939 C27.1456173,15.0480006 27.1430834,15.0480006 27.1405495,15.0485074 C27.1932536,15.0763798 27.2464645,15.1012115 27.298155,15.1300974 L26.9804101,15.0804339 C27.033621,15.0702985 27.0873386,15.0591496 27.1405495,15.0485074 C25.8548737,14.3648745 24.4090585,14 22.9455064,14 C20.5560852,14 18.3095732,14.93043 16.6200016,16.6205084 C14.9309367,18.31008 14,20.556592 14,22.9460131 C14,24.4668303 14.3912265,25.9618022 15.1255365,27.2829519 C15.1351651,27.2282207 15.1417531,27.1729829 15.1523953,27.1182516 L15.2071265,27.434983 C15.1787473,27.3853195 15.1539156,27.333629 15.1255365,27.2829519 C14.976546,28.1388867 14.8979967,29.013572 14.8979967,29.8872436 C14.8979967,31.9275003 15.2973315,33.9059307 16.0863726,35.7693246 C16.8465278,37.5693721 17.9360836,39.1844485 19.3231135,40.5719851 C20.7116636,41.9595218 22.32674,43.050091 24.1272943,43.8092327 C25.9896746,44.5987806 27.9691187,44.9986222 30.0088685,44.9986222 C30.8967297,44.9986222 31.7866181,44.917539 32.6552221,44.7634809 C32.6045451,44.7351017 32.5528545,44.7092565 32.501164,44.679357 L32.8239765,44.7361152 C32.7682319,44.7467575 32.7119804,44.7533455 32.6552221,44.7634809 C33.993602,45.5205955 35.5088448,45.922971 37.0560139,45.922971 C39.4449284,45.922971 41.6904268,44.9940613 43.3799984,43.3034761 C45.0700767,41.614918 46,39.3678993 46,36.9784781 C46,35.4525932 45.6067464,33.9525536 44.8673687,32.6263363 L44.8673687,32.6263363 L44.8673687,32.6263363 Z M30.0691741,39.141373 C24.7009581,39.141373 22.2993744,36.5021141 22.2993744,34.5241904 C22.2993744,33.5096365 23.0483807,32.798638 24.0806715,32.798638 C26.3778605,32.798638 25.7829123,36.0972049 30.0691741,36.0972049 C32.2634887,36.0972049 33.4751761,34.9057883 33.4751761,33.6864994 C33.4751761,32.953203 33.1133422,32.1403436 31.6685406,31.7840843 L26.8937525,30.5921609 C23.0483807,29.6277774 22.3505582,27.5490063 22.3505582,25.5949006 C22.3505582,21.537699 26.1705915,20.0143479 29.7580172,20.0143479 C33.0626652,20.0143479 36.9582072,21.8407475 36.9582072,24.2747644 C36.9582072,25.3176974 36.0551429,25.9243012 35.0233589,25.9243012 C33.0626652,25.9243012 33.4234856,23.2105472 29.474226,23.2105472 C27.5145459,23.2105472 26.4290443,24.0979017 26.4290443,25.3678676 C26.4290443,26.6352998 27.9767202,27.040209 29.3206746,27.3462983 L32.8548895,28.1307784 C36.7261066,28.9933011 37.7077204,31.2534959 37.7077204,33.3824373 C37.7077204,36.6794838 35.1769102,39.141373 30.0691741,39.141373 L30.0691741,39.141373 Z M32.501164,44.679357 C32.5528545,44.7092565 32.6045451,44.7351017 32.6552221,44.7634809 C32.7119804,44.7533455 32.7682319,44.7467575 32.8239765,44.7361152 L32.501164,44.679357 L32.501164,44.679357 Z M44.8394964,32.7955974 C44.8501386,32.739346 44.8572334,32.6825877 44.8673687,32.6263363 C44.8394964,32.5756593 44.8146646,32.5234619 44.7847652,32.4732916 L44.8394964,32.7955974 L44.8394964,32.7955974 Z M15.1523953,27.1182516 C15.1417531,27.1729829 15.1351651,27.2282207 15.1255365,27.2829519 C15.1539156,27.333629 15.1787473,27.3853195 15.2071265,27.434983 L15.1523953,27.1182516 L15.1523953,27.1182516 Z M27.298155,15.1300974 C27.2464645,15.1012115 27.1932536,15.0763798 27.1405495,15.0485074 C27.0873386,15.0591496 27.033621,15.0702985 26.9804101,15.0804339 L27.298155,15.1300974 L27.298155,15.1300974 Z" id="Shape" fill="#FFFFFF"></path>
            </g>
        </g>
    </g>
</svg>