<?xml version="1.0" encoding="UTF-8"?>
<svg width="60px" height="60px" viewBox="0 0 60 60" version="1.1" xmlns="http://www.w3.org/2000/svg" xmlns:xlink="http://www.w3.org/1999/xlink">
    <defs>
        <linearGradient x1="50%" y1="3.34821429%" x2="50%" y2="99.5555644%" id="linearGradient-1">
            <stop stop-color="#8761FF" offset="0%"></stop>
            <stop stop-color="#4B399C" offset="100%"></stop>
        </linearGradient>
    </defs>
    <g id="Realese-1" stroke="none" stroke-width="1" fill="none" fill-rule="evenodd">
        <g id="Realese_user_page-FINAL" transform="translate(-67.000000, -488.000000)">
            <g id="4" transform="translate(67.000000, 488.000000)">
                <circle id="Oval-2-Copy-3" fill="url(#linearGradient-1)" cx="30" cy="30" r="30"></circle>
                <path d="M42.2225185,16.7600222 C41.4052593,16.0082444 38.1047407,13.6118741 30.7512963,13.5791333 C30.7512963,13.5791333 22.0794074,13.0559111 17.8527037,16.9344296 C15.4997778,19.2873556 14.6718148,22.7301704 14.5842963,27.0003185 C14.4974074,31.2704667 14.3840741,39.2711704 22.097037,41.4415037 C22.0995556,41.4421333 22.1020741,41.442763 22.1045926,41.4433926 L22.0995556,44.7533556 C22.0995556,44.7533556 22.0510741,46.0944667 22.9325556,46.3677259 C24.0004074,46.6989111 24.6268889,45.6801704 25.6462593,44.5820963 C26.206,43.9795407 26.9772963,43.0936519 27.5603333,42.4168 C32.8353704,42.8588 36.8920741,41.8457259 37.352963,41.6965037 C38.4182963,41.3495778 44.4451111,40.5789111 45.4254444,32.5782074 C46.436,24.3294296 44.934963,19.1129481 42.2225185,16.7600222 M43.115963,31.9825778 C42.2867407,38.6629481 37.4008148,39.0848 36.4998148,39.3738 C36.1163704,39.4972074 32.552037,40.3837259 28.0722222,40.0909481 C28.0722222,40.0909481 24.7332963,44.1186889 23.6912593,45.1663926 C23.5281852,45.3300963 23.3367778,45.3955778 23.208963,45.3647259 C23.0295185,45.3212815 22.9797778,45.1084667 22.9822963,44.7974296 C22.9848148,44.3535407 23.0106296,39.2963556 23.0106296,39.2963556 C23.004963,39.2950963 23.0068519,39.2957259 23.0093704,39.2963556 C16.4864074,37.4836519 16.8667037,30.6729481 16.9403704,27.1073556 C17.014037,23.5411333 17.683963,20.6196519 19.6748519,18.6545778 C23.2498889,15.4163926 30.6152963,15.8999481 30.6152963,15.8999481 C36.8354074,15.9276519 39.8160741,17.8001704 40.5074074,18.4279111 C42.8017778,20.3929852 43.971,25.0944296 43.115963,31.9825778" id="Fill-4775" fill="#FFFFFF"></path>
                <path d="M33.777863,27.2299444 C33.5574926,27.2299444 33.3742704,27.0574259 33.362937,26.8351667 C33.2924185,25.423537 32.6275296,24.7322037 31.2706778,24.6597963 C31.0414926,24.6472037 30.8651963,24.4513889 30.8777889,24.2222037 C30.8903815,23.9930185 31.0861963,23.8167222 31.3153815,23.8293148 C33.1060481,23.9256481 34.1014926,24.9506852 34.1934185,26.7936111 C34.2047519,27.0227963 34.0284556,27.2179815 33.7986407,27.2293148 C33.7917148,27.2299444 33.7847889,27.2299444 33.777863,27.2299444" id="Fill-4777" fill="#FFFFFF"></path>
                <path d="M35.9118037,27.9452037 L35.9023593,27.9452037 C35.6725444,27.9401667 35.4905815,27.7493889 35.4962481,27.5202037 C35.5283593,26.0985 35.1222481,24.947537 34.2546185,24.0018333 C33.3913963,23.0573889 32.2064333,22.5429815 30.6311,22.4271296 C30.4025444,22.4101296 30.2300259,22.2111667 30.2470259,21.9819815 C30.2640259,21.7534259 30.4629889,21.5809074 30.6921741,21.5979074 C32.4639519,21.7276111 33.8692852,22.3477963 34.8685074,23.4402037 C35.8727667,24.5363889 36.3638778,25.9152778 36.3273593,27.5390926 C36.3223222,27.7651296 36.1372111,27.9452037 35.9118037,27.9452037" id="Fill-4779" fill="#FFFFFF"></path>
                <path d="M38.0964926,28.7996111 C37.8685667,28.7996111 37.6828259,28.6157593 37.680937,28.3872037 C37.6614185,25.8447593 36.9291593,23.9036111 35.4426037,22.4516852 C33.9736778,21.0211667 32.1175296,20.2870185 29.9257889,20.2712778 C29.6966037,20.2700185 29.5114926,20.0823889 29.5133815,19.8525741 C29.5146407,19.6240185 29.7010111,19.4401667 29.928937,19.4401667 L29.9320852,19.4401667 C32.3454556,19.4571667 34.3949,20.2700185 36.0231222,21.8566852 C37.653863,23.4490185 38.4912704,25.6439074 38.5120481,28.3809074 C38.513937,28.6100926 38.3294556,28.7977222 38.0996407,28.7996111 L38.0964926,28.7996111 Z" id="Fill-4781" fill="#FFFFFF"></path>
                <path d="M31.3751333,32.3838407 C31.3751333,32.3838407 31.9600593,32.4354704 32.2742444,32.0451 L32.8881333,31.2738037 C33.1834296,30.8903593 33.8986889,30.6466926 34.5982074,31.0364333 C34.9879481,31.2561741 35.6862074,31.6881 36.1244296,32.0104704 C36.5884667,32.3517296 37.5385778,33.1431741 37.5417259,33.1456926 C37.9950593,33.5278778 38.0995778,34.0895074 37.7910593,34.6813593 C37.7910593,34.6845074 37.7885407,34.6908037 37.7885407,34.6939519 C37.471837,35.2536926 37.0480963,35.7775444 36.5116519,36.2667667 C36.5053556,36.2692852 36.5053556,36.2724333 36.5003185,36.2755815 C36.0602074,36.6426556 35.6276519,36.851063 35.2032815,36.902063 C35.1522815,36.912137 35.0899481,36.9165444 35.013763,36.9140259 C34.8280222,36.9159148 34.6441704,36.8882111 34.4622074,36.8290259 L34.4483556,36.8088778 C33.7941704,36.6243963 32.7023926,36.1628778 30.8833926,35.1592481 C29.7015778,34.5075815 28.7180963,33.8426926 27.8882444,33.1803222 C27.4493926,32.8346556 26.9985778,32.441137 26.540837,31.9859148 C26.5257259,31.9708037 26.5106148,31.9556926 26.4955037,31.9405815 C26.4803926,31.9254704 26.4652815,31.9103593 26.4495407,31.8952481 L26.4495407,31.8952481 L26.4495407,31.8946185 C26.4344296,31.8795074 26.4193185,31.8643963 26.4042074,31.8492852 C26.3890963,31.8341741 26.3739852,31.819063 26.3588741,31.8039519 C25.9036519,31.3462111 25.5101333,30.8953963 25.163837,30.4565444 C24.5020963,29.6266926 23.8372074,28.6432111 23.1855407,27.4613963 C22.1819111,25.6423963 21.7203926,24.5506185 21.5359111,23.8964333 L21.515763,23.8819519 C21.4565778,23.6999889 21.4288741,23.516137 21.430763,23.3310259 C21.4276148,23.2542111 21.4326519,23.1925074 21.4420963,23.1415074 C21.4937259,22.717137 21.7021333,22.2845815 22.0692074,21.8444704 C22.0723556,21.8388037 22.0755037,21.8388037 22.0780222,21.833137 C22.5672444,21.2973222 23.0910963,20.8729519 23.650837,20.5562481 C23.6539852,20.5562481 23.6602815,20.5537296 23.6628,20.5537296 C24.2552815,20.2452111 24.8169111,20.3497296 25.1984667,20.803063 C25.2016148,20.8055815 25.9930593,21.7563222 26.3343185,22.2203593 C26.6566889,22.6585815 27.0886148,23.3562111 27.3083556,23.7465815 C27.6980963,24.4461 27.4538,25.1613593 27.0709852,25.4566556 L26.2990593,26.0699148 C25.9093185,26.3847296 25.9609481,26.9696556 25.9609481,26.9696556 C25.9609481,26.9696556 27.1024667,31.2933222 31.3751333,32.3838407" id="Fill-4783" fill="#FFFFFF"></path>
            </g>
        </g>
    </g>
</svg>