<?xml version="1.0" encoding="UTF-8"?>
<svg width="60px" height="60px" viewBox="0 0 60 60" version="1.1" xmlns="http://www.w3.org/2000/svg" xmlns:xlink="http://www.w3.org/1999/xlink">
    <defs>
        <linearGradient x1="50%" y1="3.34821429%" x2="50%" y2="99.5555644%" id="linearGradient-1">
            <stop stop-color="#538FD2" offset="0%"></stop>
            <stop stop-color="#386FAE" offset="100%"></stop>
        </linearGradient>
    </defs>
    <g id="Realese-1" stroke="none" stroke-width="1" fill="none" fill-rule="evenodd">
        <g id="Realese_user_page-FINAL" transform="translate(-158.000000, -488.000000)">
            <g id="5" transform="translate(158.000000, 488.000000)">
                <circle id="Oval-2-Copy-5" fill="url(#linearGradient-1)" cx="30" cy="30" r="30"></circle>
                <path d="M39.5380995,29.8256293 C39.5380995,29.8256293 43.5887858,24.1117848 43.9913012,22.2339817 C44.1253978,21.5633861 43.8303176,21.1876447 43.132722,21.1876447 L39.6186477,21.1876447 C38.8138427,21.1876447 38.5187626,21.5363861 38.2773437,22.046111 C38.2773437,22.046111 36.3773983,26.0944249 34.0656738,28.6454219 C33.3235676,29.4701098 32.9462447,29.7183069 32.536612,29.7183069 C32.206172,29.7183069 32.0537742,29.4428838 32.0537742,28.6989701 L32.0537742,22.1803205 C32.0537742,21.268306 31.9464518,21 31.1954209,21 L25.5620116,21 C25.132722,21 24.864416,21.2495528 24.864416,21.5900473 C24.864416,22.4489654 26.178946,22.6429365 26.178946,24.970138 L26.178946,29.7719681 C26.178946,30.7377568 26.1252848,31.1132722 25.6692211,31.1132722 C24.4621265,31.1132722 21.5917607,26.9553765 19.9822636,22.2339817 C19.6602964,21.268306 19.311555,21 18.3994276,21 L14.8853533,21 C14.3756284,21 14,21.3486283 14,21.8582403 C14,22.7971418 15.0998851,27.1430212 19.4188774,32.9643012 C22.3160174,36.880778 26.1252848,39 29.5589238,39 C31.6513717,39 32.1610966,38.6513717 32.1610966,37.7660183 L32.1610966,34.761556 C32.1610966,34.0104122 32.4561767,33.6885579 32.8853533,33.6885579 C33.3681911,33.6885579 34.220444,33.843667 36.2117829,35.8077799 C38.5724238,38.0612114 38.7334074,39 40.0211632,39 L43.9644142,39 C44.3668167,39 44.7423321,38.8122423 44.7423321,38.1416467 C44.7423321,37.2562934 43.5887858,35.6736834 41.8183051,33.7957674 C41.0940483,32.8300917 39.9137279,31.7839807 39.5380995,31.3011429 C39.0017134,30.7377568 39.162584,30.4156766 39.5380995,29.8256293" id="Fill-4" fill="#FFFFFF"></path>
            </g>
        </g>
    </g>
</svg>