<?xml version="1.0" encoding="UTF-8"?>
<svg width="60px" height="60px" viewBox="0 0 60 60" version="1.1" xmlns="http://www.w3.org/2000/svg" xmlns:xlink="http://www.w3.org/1999/xlink">
    <defs>
        <linearGradient x1="50%" y1="5.71236573%" x2="50%" y2="99.5555644%" id="linearGradient-1">
            <stop stop-color="#5FFD7D" offset="0%"></stop>
            <stop stop-color="#25CF43" offset="100%"></stop>
        </linearGradient>
    </defs>
    <g id="Realese-1" stroke="none" stroke-width="1" fill="none" fill-rule="evenodd">
        <g id="Realese_user_page-FINAL" transform="translate(-158.000000, -398.000000)">
            <g id="2" transform="translate(158.000000, 398.000000)">
                <circle id="Oval-2-Copy" fill="url(#linearGradient-1)" cx="30" cy="30" r="30"></circle>
                <path d="M30.010106,43.4392442 C25.7660599,43.4392442 22.3688018,41.1454194 22.3688018,41.1454194 L17.1554424,42.8465161 L18.8470599,37.7992396 C18.8470599,37.7992396 16.145,34.0585346 16.145,29.5740599 C16.145,21.9165392 22.3525853,15.7089539 30.010106,15.7089539 C37.6676267,15.7089539 43.8753687,21.9165392 43.8753687,29.5740599 C43.8753687,37.2315806 37.6676267,43.4392442 30.010106,43.4392442 L30.010106,43.4392442 Z M30.010106,13.0679217 C20.8940323,13.0679217 13.5040461,20.4579862 13.5040461,29.5740599 C13.5040461,34.0984101 15.8993226,38.1424516 15.8993226,38.1424516 L13.0136313,46.9320783 L22.0579447,44.041765 C22.0579447,44.041765 25.4155622,46.0801982 30.010106,46.0801982 C39.1262581,46.0801982 46.5163226,38.6901336 46.5163226,29.5740599 C46.5163226,20.4579862 39.1262581,13.0679217 30.010106,13.0679217 L30.010106,13.0679217 Z" id="Fill-5" fill="#FFFFFF"></path>
                <path d="M23.7245714,22.3879954 C23.7245714,22.3879954 24.1705668,22.105341 24.4030829,22.105341 L25.7033871,22.105341 C25.7033871,22.105341 26.0520829,22.1660553 26.212212,22.5294009 C26.3724194,22.8926682 27.4687235,25.4685991 27.5502765,25.6673502 C27.6318295,25.866023 27.8446037,26.3576912 27.5031935,26.7980461 C27.1617834,27.2384793 26.4477834,28.0607465 26.4477834,28.0607465 C26.4477834,28.0607465 26.165129,28.3152765 26.4101014,28.7204562 C26.6550737,29.1255576 27.5166682,30.462212 28.6435253,31.4720276 C29.7703041,32.4818433 31.1502028,33.2246728 31.8379585,33.4508433 C32.525871,33.6770138 32.6765991,33.3754793 32.9403733,33.0362627 C33.2043041,32.6970461 34.0241429,31.6605161 34.0241429,31.6605161 C34.0241429,31.6605161 34.3069539,31.2459355 34.8627834,31.5003088 C35.4188479,31.754682 38.1231014,33.0645438 38.1231014,33.0645438 C38.1231014,33.0645438 38.4528387,33.1211843 38.4717189,33.4886037 C38.4905207,33.8561014 38.7170046,34.9557742 37.7368018,36.0138479 C36.7565991,37.0719217 34.672023,37.561553 33.6850829,37.2856359 C32.6979862,37.0097189 29.4347696,36.1559585 27.3064793,34.1712673 C25.1781889,32.186576 23.4546866,30.0974562 22.7496175,28.5568018 C22.0445484,27.0161475 22.0837189,26.1021429 22.1228894,25.6712673 C22.1620599,25.2403917 22.3884654,23.2437926 23.7245714,22.3879954" id="Fill-6" fill="#FFFFFF"></path>
            </g>
        </g>
    </g>
</svg>